<svg xmlns="http://www.w3.org/2000/svg" xmlns:xlink="http://www.w3.org/1999/xlink" width="1391" zoomAndPan="magnify" viewBox="0 0 1043.25 440.999989" height="588" preserveAspectRatio="xMidYMid meet" version="1.0"><defs><clipPath id="58b154874e"><path d="M 0 0.160156 L 1042.5 0.160156 L 1042.5 440.839844 L 0 440.839844 Z M 0 0.160156 " clip-rule="nonzero"/></clipPath><clipPath id="50fbd78954"><path d="M 1 263.96875 L 1042 263.96875 L 1042 440.839844 L 1 440.839844 Z M 1 263.96875 " clip-rule="nonzero"/></clipPath><clipPath id="8f51a660dd"><path d="M 0 0.160156 L 1042.5 0.160156 L 1042.5 287.335938 L 0 287.335938 Z M 0 0.160156 " clip-rule="nonzero"/></clipPath></defs><g clip-path="url(#58b154874e)"><path fill="#ffffff" d="M 0 0.160156 L 1042.5 0.160156 L 1042.5 440.839844 L 0 440.839844 Z M 0 0.160156 " fill-opacity="1" fill-rule="nonzero"/><path fill="#ffffff" d="M 0 0.160156 L 1042.5 0.160156 L 1042.5 440.839844 L 0 440.839844 Z M 0 0.160156 " fill-opacity="1" fill-rule="nonzero"/></g><g clip-path="url(#50fbd78954)"><path fill="#deedf8" d="M 1.011719 432.160156 C 1.011719 436.972656 4.988281 440.855469 9.808594 440.71875 C 87.824219 438.484375 90.753906 406.605469 174.425781 406.605469 C 261.132812 406.605469 261.132812 440.839844 347.84375 440.839844 C 434.550781 440.839844 434.550781 406.605469 521.257812 406.605469 C 607.960938 406.605469 607.960938 440.839844 694.667969 440.839844 C 781.375 440.839844 781.375 406.605469 868.078125 406.605469 C 951.746094 406.605469 954.675781 438.484375 1032.695312 440.71875 C 1037.511719 440.855469 1041.488281 436.972656 1041.488281 432.160156 L 1041.488281 272.527344 C 1041.488281 267.800781 1037.648438 263.96875 1032.914062 263.96875 L 9.585938 263.96875 C 4.851562 263.96875 1.011719 267.800781 1.011719 272.527344 Z M 1.011719 432.160156 " fill-opacity="1" fill-rule="nonzero"/></g><g clip-path="url(#8f51a660dd)"><path fill="#deedf8" d="M 0 0.160156 L 1042.5 0.160156 L 1042.5 287.335938 L 0 287.335938 Z M 0 0.160156 " fill-opacity="1" fill-rule="nonzero"/></g></svg>