<svg width="1920" height="189" viewBox="0 0 1920 189" fill="none" xmlns="http://www.w3.org/2000/svg" >
  <path opacity="0.45" d="M-111 169.225C33.8638 110.564 395.564 -5.15577 683.455 1.25578C1043.32 9.27021 1226.9 147.853 1403.18 147.853C1548.93 147.853 1819.05 68.5993 1939 25.633" stroke="black" stroke-opacity="0.5" stroke-width="2"/>
  <path opacity="0.45" d="M-111 175.233C33.8638 116.572 395.564 0.852291 683.455 7.26384C1043.32 15.2783 1226.9 153.861 1403.18 153.861C1548.93 153.861 1819.05 74.6073 1939 31.6411" stroke="black" stroke-opacity="0.5" stroke-width="2"/>
  <path opacity="0.45" d="M-111 181.241C33.8638 122.58 395.564 6.86035 683.455 13.2719C1043.32 21.2863 1226.9 159.869 1403.18 159.869C1548.93 159.869 1819.05 80.6154 1939 37.6491" stroke="black" stroke-opacity="0.5" stroke-width="2"/>
  <path opacity="0.45" d="M-111 188C33.8638 129.077 395.564 12.8409 683.455 19.2811C1043.32 27.3313 1226.9 166.533 1403.18 166.533C1548.93 166.533 1819.05 86.9252 1939 43.7672" stroke="black" stroke-opacity="0.5" stroke-width="2"/>
</svg>
